<svg width="25" height="25" viewBox="0 0 25 25" fill="none" xmlns="http://www.w3.org/2000/svg">
<path d="M12.5 25C10.7708 25 9.14583 24.6717 7.625 24.015C6.10416 23.3583 4.78125 22.4679 3.65625 21.3437C2.53125 20.2196 1.64083 18.8967 0.985001 17.375C0.329168 15.8533 0.000834915 14.2283 1.58228e-06 12.5C-0.000831751 10.7717 0.327501 9.14666 0.985001 7.625C1.6425 6.10333 2.53292 4.78041 3.65625 3.65625C4.77958 2.53208 6.1025 1.64167 7.625 0.985C9.1475 0.328333 10.7725 0 12.5 0C14.2275 0 15.8525 0.328333 17.375 0.985C18.8975 1.64167 20.2204 2.53208 21.3437 3.65625C22.4671 4.78041 23.3579 6.10333 24.0162 7.625C24.6746 9.14666 25.0025 10.7717 25 12.5C24.9975 14.2283 24.6692 15.8533 24.015 17.375C23.3608 18.8967 22.4704 20.2196 21.3437 21.3437C20.2171 22.4679 18.8942 23.3587 17.375 24.0162C15.8558 24.6737 14.2308 25.0017 12.5 25ZM12.5 22.5C15.2917 22.5 17.6562 21.5312 19.5937 19.5937C21.5312 17.6562 22.5 15.2917 22.5 12.5C22.5 11.1667 22.245 9.89083 21.735 8.67249C21.225 7.45416 20.5008 6.37583 19.5625 5.4375L5.4375 19.5625C6.375 20.5 7.45333 21.2242 8.6725 21.735C9.89166 22.2458 11.1675 22.5008 12.5 22.5ZM12.5 17.5V15.625H18.75V17.5H12.5ZM7.5 11.875H9.375V9.37499H11.875V7.5H9.375V5H7.5V7.5H5V9.37499H7.5V11.875Z" fill="black"/>
</svg>
