<svg width="28" height="28" viewBox="0 0 28 28" fill="none" xmlns="http://www.w3.org/2000/svg">
<path d="M23.4281 27.194L14.0001 17.7659L4.57197 27.194C4.07187 27.6941 3.39359 27.975 2.68635 27.975C1.97911 27.975 1.30083 27.6941 0.800735 27.194C0.300637 26.6939 0.0196846 26.0156 0.0196859 25.3084C0.0196846 24.6011 0.300638 23.9228 0.800736 23.4227L10.2288 13.9947L0.800734 4.56657C0.300637 4.06647 0.0196866 3.3882 0.0196868 2.68095C0.019687 1.97371 0.300637 1.29543 0.800734 0.795336C1.30083 0.295238 1.97911 0.0142874 2.68635 0.0142872C3.3936 0.014287 4.07187 0.295238 4.57197 0.795335L14.0001 10.2234L23.4282 0.795334C23.9282 0.295237 24.6065 0.0142848 25.3138 0.014285C26.021 0.0142852 26.6993 0.295237 27.1994 0.795334C27.6995 1.29543 27.9804 1.97371 27.9804 2.68095C27.9804 3.38819 27.6995 4.06647 27.1994 4.56657L17.7713 13.9947L27.1994 23.4227C27.6995 23.9228 27.9804 24.6011 27.9804 25.3084C27.9804 26.0156 27.6995 26.6939 27.1994 27.194C26.6993 27.6941 26.021 27.975 25.3138 27.975C24.6065 27.975 23.9282 27.6941 23.4281 27.194Z" fill="white"/>
</svg>
