<svg width="26" height="26" viewBox="0 0 26 26" fill="none" xmlns="http://www.w3.org/2000/svg">
<path fill-rule="evenodd" clip-rule="evenodd" d="M19.6519 11.2292C19.6519 12.3353 19.434 13.4305 19.0108 14.4524C18.5875 15.4743 17.9671 16.4028 17.1849 17.1849C16.4028 17.9671 15.4743 18.5875 14.4524 19.0108C13.4305 19.434 12.3353 19.6519 11.2292 19.6519C10.1231 19.6519 9.02784 19.434 8.00595 19.0108C6.98406 18.5875 6.05555 17.9671 5.27342 17.1849C4.4913 16.4028 3.87089 15.4743 3.44761 14.4524C3.02433 13.4305 2.80647 12.3353 2.80647 11.2292C2.80647 8.99534 3.69386 6.85299 5.27342 5.27343C6.85299 3.69386 8.99534 2.80647 11.2292 2.80647C13.463 2.80647 15.6054 3.69386 17.1849 5.27343C18.7645 6.85299 19.6519 8.99534 19.6519 11.2292ZM18.1171 20.1011C15.8605 21.853 13.0211 22.679 10.1769 22.4111C7.33271 22.1431 4.69754 20.8013 2.80787 18.6588C0.918195 16.5162 -0.083928 13.7341 0.00551028 10.8787C0.0949486 8.02332 1.26922 5.30934 3.28928 3.28928C5.30934 1.26922 8.02332 0.0949486 10.8787 0.00551028C13.7341 -0.083928 16.5162 0.918195 18.6588 2.80787C20.8013 4.69754 22.1431 7.33271 22.4111 10.1769C22.679 13.0211 21.853 15.8605 20.1011 18.1171L25.3232 23.3392C25.4611 23.4677 25.5717 23.6227 25.6485 23.7949C25.7252 23.9671 25.7665 24.153 25.7698 24.3414C25.7731 24.5299 25.7384 24.7172 25.6678 24.892C25.5972 25.0668 25.4921 25.2255 25.3588 25.3588C25.2255 25.4921 25.0668 25.5972 24.892 25.6678C24.7172 25.7384 24.5299 25.7731 24.3414 25.7698C24.153 25.7665 23.9671 25.7252 23.7949 25.6485C23.6227 25.5717 23.4677 25.4611 23.3392 25.3232L18.1171 20.1011Z" fill="black"/>
</svg>
