<svg width="38" height="38" viewBox="0 0 38 38" fill="none" xmlns="http://www.w3.org/2000/svg">
<path d="M35 21.6613H21.6667V34.9947C21.6667 35.7019 21.3857 36.3802 20.8856 36.8803C20.3855 37.3804 19.7073 37.6613 19 37.6613C18.2928 37.6613 17.6145 37.3804 17.1144 36.8803C16.6143 36.3802 16.3333 35.7019 16.3333 34.9947V21.6613H3.00001C2.29277 21.6613 1.61449 21.3804 1.11439 20.8803C0.614296 20.3802 0.333344 19.7019 0.333344 18.9947C0.333344 18.2874 0.614296 17.6091 1.11439 17.1091C1.61449 16.609 2.29277 16.328 3.00001 16.328H16.3333V2.99467C16.3333 2.28743 16.6143 1.60915 17.1144 1.10905C17.6145 0.608954 18.2928 0.328003 19 0.328003C19.7073 0.328003 20.3855 0.608954 20.8856 1.10905C21.3857 1.60915 21.6667 2.28743 21.6667 2.99467V16.328H35C35.7073 16.328 36.3855 16.609 36.8856 17.1091C37.3857 17.6091 37.6667 18.2874 37.6667 18.9947C37.6667 19.7019 37.3857 20.3802 36.8856 20.8803C36.3855 21.3804 35.7073 21.6613 35 21.6613Z" fill="white"/>
</svg>
