<svg width="31" height="32" viewBox="0 0 31 32" fill="none" xmlns="http://www.w3.org/2000/svg">
<path d="M8.21203 0.791341C5.53939 2.5084 3.73274 5.53938 3.73274 9.00337C3.73274 12.4673 5.53939 15.4983 8.25682 17.2154C3.67302 17.2154 0 13.5424 0 9.00337C0 6.8254 0.865194 4.73664 2.40525 3.19659C3.9453 1.65653 6.03407 0.791341 8.21203 0.791341ZM25.4872 3.03098L27.6223 5.16611L4.37477 28.4136L2.23965 26.2785L25.4872 3.03098ZM16.2598 6.65921L14.05 5.27063L11.9 6.76372L12.5271 4.22546L10.4517 2.64278L13.0646 2.46361L13.9306 0L14.931 2.43375L17.514 2.47854L15.4983 4.16574L16.2598 6.65921ZM11.3326 12.0493L9.60061 10.9593L7.92834 12.1239L8.436 10.1531L6.80852 8.91378L8.83913 8.7794L9.51103 6.85331L10.2725 8.74954L12.3031 8.79433L10.7354 10.0933L11.3326 12.0493ZM25.3826 17.9619C25.3826 20.1399 24.5174 22.2287 22.9774 23.7687C21.4373 25.3088 19.3486 26.174 17.1706 26.174C15.349 26.174 13.6618 25.5767 12.3031 24.5764L23.785 13.0944C24.7854 14.4532 25.3826 16.1404 25.3826 17.9619ZM18.813 27.7865L22.9489 26.0695L22.5905 31.0713L18.813 27.7865ZM25.2781 23.7552L26.9952 19.6193L30.28 23.4117L25.2781 23.7552ZM26.9952 16.3494L25.2931 12.1986L30.28 12.5569L26.9952 16.3494ZM11.3923 26.0695L15.5282 27.7865L11.7507 31.0564L11.3923 26.0695Z" fill="black"/>
</svg>
